<?xml version="1.0" encoding="utf-8"?>
<!-- Generator: Adobe Illustrator 22.1.0, SVG Export Plug-In . SVG Version: 6.00 Build 0)  -->
<svg version="1.1" id="Calque_1" xmlns="http://www.w3.org/2000/svg" xmlns:xlink="http://www.w3.org/1999/xlink" x="0px" y="0px"
	 viewBox="0 0 448 250" style="enable-background:new 0 0 448 250;" xml:space="preserve">
<style type="text/css">
	.st0{fill:#212121;}
	.st1{fill:#FFFFFF;}
</style>
<g id="Layer_1">
</g>
<g>
	<path class="st0" d="M199.6-269.9V-292h7.9l-18-21l-18,21h6.1v22.1c0,1.1,1.8,1.9,2.9,1.9h18C199.7-268,199.6-268.8,199.6-269.9z"
		/>
	<path class="st0" d="M189.6-148.9l18-21h-7.9v-21.9c0-1.1,0-2.1-1.1-2.1h-18c-1.1,0-2.9,1-2.9,2.1v21.9h-6.1L189.6-148.9z"/>
	<circle class="st0" cx="189.6" cy="-232.4" r="26.5"/>
	<g id="Ellipse_3_8_">
		<g>
			<circle class="st1" cx="189.6" cy="-232.4" r="19.5"/>
		</g>
	</g>
	<g id="Ellipse_3_6_">
		<g>
			<circle class="st1" cx="197.5" cy="-216.9" r="19.5"/>
		</g>
	</g>
	<g>
		<path class="st0" d="M269.9-52.1l-0.3-0.3c-10.1-9.2-19.2-14.2-28.7-19.4c-17.3-9.5-35.2-19.4-61.6-55.6l-0.2-0.3l0-0.3
			c-0.1-4.8,1.3-8.9,3.9-11.6c2.3-2.4,5.6-3.7,9.4-3.7c8.6,0,19.6,6.4,31.5,18.3c-19-33.9-38.7-82.2-45.8-101.7
			c-2.7-7.4-0.3-13.7,6.5-17.2c2.4-1.2,4.9-1.9,7.5-1.9c5.5,0,10.2,3,12.9,8.3c2,3.9,5,10.1,9,18c4.4,8.8,9.6,19.3,15.5,31.1
			c0-2.2,0.7-4.5,2.1-6.6c2.8-4.2,7.8-6.8,12.8-6.8c4.4,0,8.5,2.1,11.7,6c0.3-2.4,1.5-5,3.7-7.4c3.5-3.9,8.3-6.3,12.8-6.3
			c4.1,0,9.9,1.9,14.2,10.9c0.2,0.3,0.3,0.7,0.5,1c0.3-0.9,0.7-1.8,1.3-2.8c2.4-3.6,7.7-7.2,14-7.2c4.5,0,11.1,1.9,16.5,11
			c10.3,17.3,22.1,43.2,30.9,103.8l0.2,1.1l-1.1,0.1c-0.3,0-27.4,2-38.9,19.5c-13,19.7-38.6,20-39.7,20L269.9-52.1z"/>
		<path class="st1" d="M192.1-244.7c4.6,0,9.2,2.3,12,7.8c6,11.9,22,44.3,41,82c-2.7-5.9-8.9-17.4-14-30c-3-7.5,4.7-15.8,13.2-15.8
			c4.2,0,8.6,2,12.1,7.2c0.9,1.9,7.6,15.3,8.1,16.2c3,6,5.6,10.4,5.6,10.4s-2.5-4.4-5.4-10.6c-1.7-3.5-6.9-14.4-7.7-16.6
			c-0.7-5.9,7.1-14.3,15.5-14.3c4.8,0,9.7,2.8,13.3,10.3c4.4,9.4,10.3,22.1,10.3,22.1c0,0,0,0,0,0c0,0-6.9-15.5-7.9-18.2
			c-1.9-4.6,5.5-12.3,14.3-12.3c5.2,0,11,2.7,15.6,10.5c12.1,20.2,22.7,47.7,30.8,103.4c0,0-27.7,1.8-39.7,19.9
			c-12.7,19.2-37.5,19.5-38.9,19.5c0,0-0.1,0-0.1,0c-28.7-26.1-49.4-19-90.2-74.9c-0.2-8.1,4.1-14.3,12.3-14.3
			c8.4,0,20.9,6.5,36.7,24.3c-19.6-32.8-41.5-85.5-50-109c-3-8.3,0.9-13.4,6-16C187.2-244,189.7-244.7,192.1-244.7 M192.1-246.7
			c-2.7,0-5.4,0.7-7.9,2c-7.3,3.8-9.8,10.5-7,18.5c6.7,18.5,24.7,62.7,42.7,96.2c-12.7-11.4-21.7-14.1-27.5-14.1
			c-4.1,0-7.6,1.4-10.1,4c-2.9,2.9-4.4,7.3-4.2,12.3l0,0.6l0.4,0.5c26.5,36.3,44.5,46.3,62,55.8c9.5,5.2,18.5,10.2,28.5,19.3
			l0.6,0.5l0.8,0l0.1,0c1.1,0,27.2-0.2,40.5-20.4c11.3-17.1,37.9-19,38.1-19l2.2-0.1l-0.3-2.1c-8.9-60.8-20.7-86.8-31.1-104.2
			c-5.7-9.5-12.6-11.5-17.3-11.5c-6.7,0-12.2,3.8-14.8,7.6c-0.2,0.3-0.4,0.6-0.6,0.9c-4.4-8.6-10.4-10.5-14.6-10.5
			c-4.8,0-9.9,2.5-13.6,6.6c-1.7,1.9-2.9,3.9-3.5,5.9c-3.1-3.2-7-4.9-11.1-4.9c-5.3,0-10.6,2.9-13.6,7.3c-0.8,1.2-1.4,2.5-1.8,3.8
			c-5.3-10.6-10.1-20.2-14.1-28.3c-3.9-7.8-7-14-9-18C203-243.4,198-246.7,192.1-246.7L192.1-246.7z"/>
	</g>
</g>
<g>
	<path class="st0" d="M148.1,39H126v-7.9l-21,18l21,18V61h22.1c1.1,0,1.9-1.8,1.9-2.9v-18C150,39,149.2,39,148.1,39z"/>
	<path class="st0" d="M276,49.1l-21-18V39h-21.9c-1.1,0-2.1,0-2.1,1.1v18c0,1.1,1,2.9,2.1,2.9H255v6.1L276,49.1z"/>
	<circle class="st0" cx="189.6" cy="48.6" r="26.5"/>
	<g id="Ellipse_3_2_">
		<g>
			<circle class="st1" cx="189.6" cy="48.6" r="19.5"/>
		</g>
	</g>
	<g id="Ellipse_3_1_">
		<g>
			<circle class="st1" cx="197.5" cy="64.1" r="19.5"/>
		</g>
	</g>
	<path class="st0" d="M318.1,85.1c-12.4-20.7-32.9-5.6-29.9,1.8c1.1,2.6,7.9,18.2,7.9,18.2c0,0-5.9-12.8-10.3-22.1
		c-9.8-20.8-29.9-5.3-28.8,4c0.8,2.2,6,13,7.7,16.6c2.9,6.1,5.4,10.6,5.4,10.6s-2.6-4.4-5.6-10.4c-0.5-0.9-7.2-14.3-8.1-16.2
		c-10.4-15.6-29.8-2.5-25.3,8.6c5.1,12.6,11.3,24.1,14,30c-19-37.7-35-70.1-41-82c-4.2-8.3-12.7-9.3-19-6c-5.1,2.6-9,7.7-6,16
		c8.5,23.5,30.4,76.2,50,109c-31.1-34.9-49.4-26.4-49-10c40.8,55.9,61.5,48.8,90.2,74.9c0,0,25.8,0.3,38.9-19.5
		c12-18.1,39.7-19.9,39.7-19.9C340.7,132.8,330.1,105.3,318.1,85.1z"/>
</g>
</svg>
